<svg width="29" height="21" viewBox="0 0 29 21" fill="none" xmlns="http://www.w3.org/2000/svg">
<path d="M23.9261 1.88859C22.195 1.11639 20.3395 0.545626 18.399 0.221075C18.3817 0.217794 18.3639 0.219908 18.3478 0.227127C18.3318 0.234345 18.3185 0.24631 18.3096 0.261364C18.072 0.674327 17.8073 1.21263 17.6217 1.63791C15.5637 1.33377 13.4715 1.33377 11.4135 1.63791C11.2068 1.16659 10.9737 0.707033 10.7154 0.261364C10.7066 0.246124 10.6934 0.233889 10.6774 0.22629C10.6614 0.218692 10.6435 0.216092 10.626 0.218837C8.68668 0.543387 6.83111 1.11415 5.09886 1.88748C5.08396 1.89366 5.07133 1.9042 5.06266 1.91769C1.54159 7.03776 0.576469 12.0314 1.05055 16.9623C1.05186 16.9744 1.05565 16.9861 1.06168 16.9966C1.06771 17.0072 1.07586 17.0165 1.08562 17.0238C3.14077 18.5038 5.43302 19.6312 7.86638 20.3589C7.88335 20.364 7.90149 20.364 7.91844 20.3588C7.9354 20.3537 7.95038 20.3435 7.96142 20.3298C8.48415 19.6359 8.95031 18.9029 9.34858 18.1329C9.37234 18.0882 9.34971 18.0344 9.30219 18.0165C8.57128 17.7443 7.86308 17.4157 7.18412 17.0339C7.17192 17.027 7.16164 17.0173 7.1542 17.0055C7.14676 16.9937 7.1424 16.9803 7.1415 16.9664C7.14061 16.9525 7.1432 16.9386 7.14906 16.926C7.15492 16.9134 7.16386 16.9024 7.17507 16.894C7.31763 16.7899 7.46019 16.6814 7.59597 16.5728C7.60819 16.5631 7.62291 16.5569 7.63849 16.5549C7.65407 16.5529 7.6699 16.5552 7.68422 16.5616C12.1274 18.5358 16.9395 18.5358 21.3306 16.5616C21.345 16.5549 21.361 16.5522 21.3768 16.554C21.3926 16.5558 21.4075 16.5619 21.42 16.5717C21.5558 16.6814 21.6972 16.7899 21.8409 16.894C21.8522 16.9022 21.8613 16.9131 21.8673 16.9256C21.8734 16.9381 21.8762 16.9519 21.8755 16.9658C21.8749 16.9796 21.8707 16.9931 21.8635 17.005C21.8563 17.0169 21.8462 17.0268 21.8341 17.0339C21.1575 17.4189 20.4537 17.7446 19.7149 18.0154C19.7036 18.0195 19.6932 18.0259 19.6846 18.0342C19.6759 18.0426 19.6692 18.0527 19.6648 18.0638C19.6604 18.0749 19.6585 18.0868 19.6591 18.0987C19.6598 18.1107 19.663 18.1223 19.6685 18.1329C20.0758 18.9018 20.542 19.6337 21.0545 20.3287C21.0652 20.3429 21.08 20.3536 21.097 20.3592C21.1141 20.3648 21.1324 20.3651 21.1496 20.36C23.5871 19.6344 25.8831 18.5065 27.9405 17.0238C27.9506 17.0169 27.959 17.0079 27.9652 16.9975C27.9715 16.9871 27.9754 16.9755 27.9767 16.9634C28.5424 11.2625 27.0286 6.3092 23.9612 1.91993C23.9537 1.90567 23.9413 1.89455 23.9261 1.88859ZM10.0127 13.9596C8.67537 13.9596 7.57221 12.7633 7.57221 11.2961C7.57221 9.82777 8.65387 8.63253 10.0127 8.63253C11.3818 8.63253 12.4748 9.83785 12.4533 11.2961C12.4533 12.7644 11.3716 13.9596 10.0127 13.9596ZM19.036 13.9596C17.6975 13.9596 16.5955 12.7633 16.5955 11.2961C16.5955 9.82777 17.676 8.63253 19.036 8.63253C20.4051 8.63253 21.4981 9.83785 21.4766 11.2961C21.4766 12.7644 20.4062 13.9596 19.036 13.9596Z" fill="white"/>
<path d="M23.9261 1.88859C22.195 1.11639 20.3395 0.545626 18.399 0.221075C18.3817 0.217794 18.3639 0.219908 18.3478 0.227127C18.3318 0.234345 18.3185 0.24631 18.3096 0.261364C18.072 0.674327 17.8073 1.21263 17.6217 1.63791C15.5637 1.33377 13.4715 1.33377 11.4135 1.63791C11.2068 1.16659 10.9737 0.707033 10.7154 0.261364C10.7066 0.246124 10.6934 0.233889 10.6774 0.22629C10.6614 0.218692 10.6435 0.216092 10.626 0.218837C8.68668 0.543387 6.83111 1.11415 5.09886 1.88748C5.08396 1.89366 5.07133 1.9042 5.06266 1.91769C1.54159 7.03776 0.576469 12.0314 1.05055 16.9623C1.05186 16.9744 1.05565 16.9861 1.06168 16.9966C1.06771 17.0072 1.07586 17.0165 1.08562 17.0238C3.14077 18.5038 5.43302 19.6312 7.86638 20.3589C7.88335 20.364 7.90149 20.364 7.91844 20.3588C7.9354 20.3537 7.95038 20.3435 7.96142 20.3298C8.48415 19.6359 8.95031 18.9029 9.34858 18.1329C9.37234 18.0882 9.34971 18.0344 9.30219 18.0165C8.57128 17.7443 7.86308 17.4157 7.18412 17.0339C7.17192 17.027 7.16164 17.0173 7.1542 17.0055C7.14676 16.9937 7.1424 16.9803 7.1415 16.9664C7.14061 16.9525 7.1432 16.9386 7.14906 16.926C7.15492 16.9134 7.16386 16.9024 7.17507 16.894C7.31763 16.7899 7.46019 16.6814 7.59597 16.5728C7.60819 16.5631 7.62291 16.5569 7.63849 16.5549C7.65407 16.5529 7.6699 16.5552 7.68422 16.5616C12.1274 18.5358 16.9395 18.5358 21.3306 16.5616C21.345 16.5549 21.361 16.5522 21.3768 16.554C21.3926 16.5558 21.4075 16.5619 21.42 16.5717C21.5558 16.6814 21.6972 16.7899 21.8409 16.894C21.8522 16.9022 21.8613 16.9131 21.8673 16.9256C21.8734 16.9381 21.8762 16.9519 21.8755 16.9658C21.8749 16.9796 21.8707 16.9931 21.8635 17.005C21.8563 17.0169 21.8462 17.0268 21.8341 17.0339C21.1575 17.4189 20.4537 17.7446 19.7149 18.0154C19.7036 18.0195 19.6932 18.0259 19.6846 18.0342C19.6759 18.0426 19.6692 18.0527 19.6648 18.0638C19.6604 18.0749 19.6585 18.0868 19.6591 18.0987C19.6598 18.1107 19.663 18.1223 19.6685 18.1329C20.0758 18.9018 20.542 19.6337 21.0545 20.3287C21.0652 20.3429 21.08 20.3536 21.097 20.3592C21.1141 20.3648 21.1324 20.3651 21.1496 20.36C23.5871 19.6344 25.8831 18.5065 27.9405 17.0238C27.9506 17.0169 27.959 17.0079 27.9652 16.9975C27.9715 16.9871 27.9754 16.9755 27.9767 16.9634C28.5424 11.2625 27.0286 6.3092 23.9612 1.91993C23.9537 1.90567 23.9413 1.89455 23.9261 1.88859ZM10.0127 13.9596C8.67537 13.9596 7.57221 12.7633 7.57221 11.2961C7.57221 9.82777 8.65387 8.63253 10.0127 8.63253C11.3818 8.63253 12.4748 9.83785 12.4533 11.2961C12.4533 12.7644 11.3716 13.9596 10.0127 13.9596ZM19.036 13.9596C17.6975 13.9596 16.5955 12.7633 16.5955 11.2961C16.5955 9.82777 17.676 8.63253 19.036 8.63253C20.4051 8.63253 21.4981 9.83785 21.4766 11.2961C21.4766 12.7644 20.4062 13.9596 19.036 13.9596Z" fill="white"/>
</svg>
