<svg width="13" height="23" viewBox="0 0 13 23" fill="none" xmlns="http://www.w3.org/2000/svg">
<g clip-path="url(#clip0_2_13535)">
<path d="M3.20337 22.8017V12.3909H0.154175V8.64256H3.20337V5.44096C3.20337 2.92512 5.00455 0.614746 9.15483 0.614746C10.8352 0.614746 12.0778 0.760182 12.0778 0.760182L11.9799 4.26053C11.9799 4.26053 10.7127 4.24939 9.32981 4.24939C7.83316 4.24939 7.59337 4.87207 7.59337 5.90556V8.64256H12.0988L11.9028 12.3909H7.59337V22.8017H3.20337Z" fill="white"/>
<path d="M3.20337 22.8017V12.3909H0.154175V8.64256H3.20337V5.44096C3.20337 2.92512 5.00455 0.614746 9.15483 0.614746C10.8352 0.614746 12.0778 0.760182 12.0778 0.760182L11.9799 4.26053C11.9799 4.26053 10.7127 4.24939 9.32981 4.24939C7.83316 4.24939 7.59337 4.87207 7.59337 5.90556V8.64256H12.0988L11.9028 12.3909H7.59337V22.8017H3.20337Z" fill="white"/>
</g>
<defs>
<clipPath id="clip0_2_13535">
<rect width="11.9447" height="22.187" fill="white" transform="translate(0.155151 0.614746)"/>
</clipPath>
</defs>
</svg>
