<svg width="25" height="26" viewBox="0 0 25 26" fill="none" xmlns="http://www.w3.org/2000/svg">
<g clip-path="url(#clip0_2_13531)">
<path d="M24.0701 7.92568C24.057 6.94546 23.8717 5.97498 23.5227 5.05765C23.2201 4.28389 22.7579 3.58118 22.1656 2.99441C21.5733 2.40765 20.8639 1.94973 20.0829 1.64992C19.1688 1.31 18.2031 1.12619 17.227 1.10634C15.9702 1.05069 15.5717 1.03516 12.3813 1.03516C9.191 1.03516 8.78208 1.03516 7.53442 1.10634C6.55871 1.12634 5.59349 1.31014 4.67983 1.64992C3.89865 1.94952 3.1892 2.40737 2.59687 2.99416C2.00454 3.58095 1.54238 4.28377 1.23995 5.05765C0.896131 5.96249 0.710997 6.91891 0.692546 7.88556C0.636369 9.13191 0.619385 9.52666 0.619385 12.6872C0.619385 15.8477 0.619385 16.2515 0.692546 17.4888C0.712143 18.4569 0.896352 19.4121 1.23995 20.3193C1.54288 21.093 2.00539 21.7955 2.59792 22.382C3.19044 22.9686 3.89996 23.4262 4.68113 23.7257C5.5923 24.0793 6.55768 24.2763 7.53573 24.3082C8.79384 24.3638 9.1923 24.3806 12.3827 24.3806C15.573 24.3806 15.9819 24.3806 17.2296 24.3082C18.2057 24.2891 19.1714 24.1057 20.0855 23.7659C20.8663 23.4657 21.5755 23.0077 22.1677 22.421C22.76 21.8342 23.2224 21.1317 23.5254 20.3581C23.8689 19.4522 24.0532 18.497 24.0728 17.5276C24.1289 16.2826 24.1459 15.8878 24.1459 12.726C24.1433 9.56548 24.1433 9.16427 24.0701 7.92568ZM12.3735 18.664C9.03684 18.664 6.33379 15.9862 6.33379 12.6807C6.33379 9.37523 9.03684 6.69745 12.3735 6.69745C13.9753 6.69745 15.5116 7.32783 16.6442 8.44991C17.7769 9.57199 18.4132 11.0939 18.4132 12.6807C18.4132 14.2676 17.7769 15.7894 16.6442 16.9115C15.5116 18.0336 13.9753 18.664 12.3735 18.664ZM18.6536 7.87132C18.4686 7.87149 18.2854 7.83552 18.1144 7.76547C17.9435 7.69542 17.7882 7.59265 17.6574 7.46306C17.5266 7.33347 17.4228 7.1796 17.3521 7.01025C17.2814 6.8409 17.2451 6.6594 17.2453 6.47614C17.2453 6.293 17.2817 6.11166 17.3524 5.94247C17.4232 5.77327 17.5268 5.61954 17.6576 5.49005C17.7883 5.36055 17.9435 5.25783 18.1142 5.18775C18.285 5.11766 18.4681 5.08159 18.653 5.08159C18.8378 5.08159 19.0209 5.11766 19.1917 5.18775C19.3624 5.25783 19.5176 5.36055 19.6483 5.49005C19.7791 5.61954 19.8828 5.77327 19.9535 5.94247C20.0242 6.11166 20.0606 6.293 20.0606 6.47614C20.0606 7.2475 19.4309 7.87132 18.6536 7.87132Z" fill="white"/>
<path d="M24.0701 7.92568C24.057 6.94546 23.8717 5.97498 23.5227 5.05765C23.2201 4.28389 22.7579 3.58118 22.1656 2.99441C21.5733 2.40765 20.8639 1.94973 20.0829 1.64992C19.1688 1.31 18.2031 1.12619 17.227 1.10634C15.9702 1.05069 15.5717 1.03516 12.3813 1.03516C9.191 1.03516 8.78208 1.03516 7.53442 1.10634C6.55871 1.12634 5.59349 1.31014 4.67983 1.64992C3.89865 1.94952 3.1892 2.40737 2.59687 2.99416C2.00454 3.58095 1.54238 4.28377 1.23995 5.05765C0.896131 5.96249 0.710997 6.91891 0.692546 7.88556C0.636369 9.13191 0.619385 9.52666 0.619385 12.6872C0.619385 15.8477 0.619385 16.2515 0.692546 17.4888C0.712143 18.4569 0.896352 19.4121 1.23995 20.3193C1.54288 21.093 2.00539 21.7955 2.59792 22.382C3.19044 22.9686 3.89996 23.4262 4.68113 23.7257C5.5923 24.0793 6.55768 24.2763 7.53573 24.3082C8.79384 24.3638 9.1923 24.3806 12.3827 24.3806C15.573 24.3806 15.9819 24.3806 17.2296 24.3082C18.2057 24.2891 19.1714 24.1057 20.0855 23.7659C20.8663 23.4657 21.5755 23.0077 22.1677 22.421C22.76 21.8342 23.2224 21.1317 23.5254 20.3581C23.8689 19.4522 24.0532 18.497 24.0728 17.5276C24.1289 16.2826 24.1459 15.8878 24.1459 12.726C24.1433 9.56548 24.1433 9.16427 24.0701 7.92568ZM12.3735 18.664C9.03684 18.664 6.33379 15.9862 6.33379 12.6807C6.33379 9.37523 9.03684 6.69745 12.3735 6.69745C13.9753 6.69745 15.5116 7.32783 16.6442 8.44991C17.7769 9.57199 18.4132 11.0939 18.4132 12.6807C18.4132 14.2676 17.7769 15.7894 16.6442 16.9115C15.5116 18.0336 13.9753 18.664 12.3735 18.664ZM18.6536 7.87132C18.4686 7.87149 18.2854 7.83552 18.1144 7.76547C17.9435 7.69542 17.7882 7.59265 17.6574 7.46306C17.5266 7.33347 17.4228 7.1796 17.3521 7.01025C17.2814 6.8409 17.2451 6.6594 17.2453 6.47614C17.2453 6.293 17.2817 6.11166 17.3524 5.94247C17.4232 5.77327 17.5268 5.61954 17.6576 5.49005C17.7883 5.36055 17.9435 5.25783 18.1142 5.18775C18.285 5.11766 18.4681 5.08159 18.653 5.08159C18.8378 5.08159 19.0209 5.11766 19.1917 5.18775C19.3624 5.25783 19.5176 5.36055 19.6483 5.49005C19.7791 5.61954 19.8828 5.77327 19.9535 5.94247C20.0242 6.11166 20.0606 6.293 20.0606 6.47614C20.0606 7.2475 19.4309 7.87132 18.6536 7.87132Z" fill="white"/>
<path d="M12.3727 16.5671C14.5395 16.5671 16.296 14.8271 16.296 12.6805C16.296 10.534 14.5395 8.79395 12.3727 8.79395C10.206 8.79395 8.44946 10.534 8.44946 12.6805C8.44946 14.8271 10.206 16.5671 12.3727 16.5671Z" fill="white"/>
<path d="M12.3727 16.5671C14.5395 16.5671 16.296 14.8271 16.296 12.6805C16.296 10.534 14.5395 8.79395 12.3727 8.79395C10.206 8.79395 8.44946 10.534 8.44946 12.6805C8.44946 14.8271 10.206 16.5671 12.3727 16.5671Z" fill="white"/>
</g>
<defs>
<clipPath id="clip0_2_13531">
<rect width="23.8893" height="25.1452" fill="white" transform="translate(0.377197 0.135254)"/>
</clipPath>
</defs>
</svg>
