<svg width="24" height="21" viewBox="0 0 24 21" fill="none" xmlns="http://www.w3.org/2000/svg">
<path d="M8.25471 14.6939C11.8175 9.72467 9.4267 4.41876 7.78592 2.38695L10.9503 2.85136V1.34202C11.6535 0.0416598 12.4372 0.800203 12.7411 1.34202V3.66409C20.315 8.4011 17.0719 12.991 14.5037 14.6939H12.7411V16.8999H14.8813C15.7123 16.8999 17.0604 15.6614 17.6306 15.0422L23.0803 13.649V15.0422C22.0959 14.9493 21.1075 16.0097 20.7364 16.5516C18.8143 20.0811 17.279 20.8474 16.7516 20.7893H5.73494C1.28139 19.6283 0.558669 16.2419 0.754 14.6939H6.14514C5.95762 17.2946 9.27043 17.2482 10.9503 16.8999V14.6939H8.25471Z" fill="white"/>
<path d="M8.25471 14.6939C11.8175 9.72467 9.4267 4.41876 7.78592 2.38695L10.9503 2.85136V1.34202C11.6535 0.0416598 12.4372 0.800203 12.7411 1.34202V3.66409C20.315 8.4011 17.0719 12.991 14.5037 14.6939H12.7411V16.8999H14.8813C15.7123 16.8999 17.0604 15.6614 17.6306 15.0422L23.0803 13.649V15.0422C22.0959 14.9493 21.1075 16.0097 20.7364 16.5516C18.8143 20.0811 17.279 20.8474 16.7516 20.7893H5.73494C1.28139 19.6283 0.558669 16.2419 0.754 14.6939H6.14514C5.95762 17.2946 9.27043 17.2482 10.9503 16.8999V14.6939H8.25471Z" fill="white"/>
<path d="M6.92419 12.3728C9.40937 10.3144 7.95968 6.33563 6.92419 4.60352L1.98438 12.3728H6.92419Z" fill="white"/>
<path d="M6.92419 12.3728C9.40937 10.3144 7.95968 6.33563 6.92419 4.60352L1.98438 12.3728H6.92419Z" fill="white"/>
</svg>
