<svg width="24" height="20" viewBox="0 0 24 20" fill="none" xmlns="http://www.w3.org/2000/svg">
<path d="M21.8532 0.820038L1.54103 8.63671C0.154805 9.19235 0.162825 9.96407 1.2867 10.3082L6.50164 11.9317L18.5675 4.33451C19.138 3.98809 19.6593 4.17445 19.2308 4.55402L9.45509 13.3585H9.4528L9.45509 13.3596L9.09536 18.724C9.62236 18.724 9.85492 18.4827 10.1505 18.198L12.6835 15.74L17.9523 19.6237C18.9238 20.1576 19.6215 19.8833 19.8632 18.7262L23.3219 2.45952C23.6759 1.04298 22.78 0.401594 21.8532 0.820038Z" fill="white"/>
<path d="M21.8532 0.820038L1.54103 8.63671C0.154805 9.19235 0.162825 9.96407 1.2867 10.3082L6.50164 11.9317L18.5675 4.33451C19.138 3.98809 19.6593 4.17445 19.2308 4.55402L9.45509 13.3585H9.4528L9.45509 13.3596L9.09536 18.724C9.62236 18.724 9.85492 18.4827 10.1505 18.198L12.6835 15.74L17.9523 19.6237C18.9238 20.1576 19.6215 19.8833 19.8632 18.7262L23.3219 2.45952C23.6759 1.04298 22.78 0.401594 21.8532 0.820038Z" fill="white"/>
</svg>
