<svg width="26" height="26" viewBox="0 0 26 26" fill="none" xmlns="http://www.w3.org/2000/svg">
<g clip-path="url(#clip0_2_13522)">
<path d="M25.0224 5.30864C24.1393 5.6963 23.1907 5.95823 22.1934 6.07662C23.2224 5.46663 23.9923 4.50658 24.3593 3.37561C23.3925 3.94451 22.3344 4.34495 21.2309 4.55953C20.4889 3.77465 19.5061 3.25441 18.435 3.0796C17.3639 2.90479 16.2646 3.08517 15.3076 3.59275C14.3506 4.10033 13.5895 4.9067 13.1426 5.88667C12.6956 6.86665 12.5877 7.96539 12.8357 9.01232C10.8767 8.91488 8.96026 8.41046 7.21077 7.5318C5.46128 6.65314 3.91784 5.41987 2.68061 3.91204C2.25757 4.63496 2.01432 5.47314 2.01432 6.36579C2.01385 7.16939 2.21361 7.96067 2.59588 8.66944C2.97814 9.37821 3.5311 9.98255 4.20567 10.4288C3.42334 10.4042 2.65827 10.1948 1.97414 9.81802V9.88088C1.97406 11.008 2.3676 12.1003 3.08798 12.9727C3.80837 13.845 4.81123 14.4436 5.92639 14.6669C5.20065 14.8614 4.43976 14.8901 3.7012 14.7507C4.01583 15.7205 4.62871 16.5685 5.45403 17.1761C6.27936 17.7836 7.2758 18.1203 8.30388 18.139C6.55866 19.4962 4.40333 20.2324 2.1846 20.2292C1.79157 20.2293 1.39888 20.2066 1.00854 20.1611C3.26068 21.5956 5.88233 22.3569 8.55982 22.354C17.6235 22.354 22.5783 14.9173 22.5783 8.46751C22.5783 8.25797 22.573 8.04633 22.5635 7.83679C23.5273 7.14631 24.3592 6.29129 25.0203 5.31179L25.0224 5.30864Z" fill="white"/>
<path d="M25.0224 5.30864C24.1393 5.6963 23.1907 5.95823 22.1934 6.07662C23.2224 5.46663 23.9923 4.50658 24.3593 3.37561C23.3925 3.94451 22.3344 4.34495 21.2309 4.55953C20.4889 3.77465 19.5061 3.25441 18.435 3.0796C17.3639 2.90479 16.2646 3.08517 15.3076 3.59275C14.3506 4.10033 13.5895 4.9067 13.1426 5.88667C12.6956 6.86665 12.5877 7.96539 12.8357 9.01232C10.8767 8.91488 8.96026 8.41046 7.21077 7.5318C5.46128 6.65314 3.91784 5.41987 2.68061 3.91204C2.25757 4.63496 2.01432 5.47314 2.01432 6.36579C2.01385 7.16939 2.21361 7.96067 2.59588 8.66944C2.97814 9.37821 3.5311 9.98255 4.20567 10.4288C3.42334 10.4042 2.65827 10.1948 1.97414 9.81802V9.88088C1.97406 11.008 2.3676 12.1003 3.08798 12.9727C3.80837 13.845 4.81123 14.4436 5.92639 14.6669C5.20065 14.8614 4.43976 14.8901 3.7012 14.7507C4.01583 15.7205 4.62871 16.5685 5.45403 17.1761C6.27936 17.7836 7.2758 18.1203 8.30388 18.139C6.55866 19.4962 4.40333 20.2324 2.1846 20.2292C1.79157 20.2293 1.39888 20.2066 1.00854 20.1611C3.26068 21.5956 5.88233 22.3569 8.55982 22.354C17.6235 22.354 22.5783 14.9173 22.5783 8.46751C22.5783 8.25797 22.573 8.04633 22.5635 7.83679C23.5273 7.14631 24.3592 6.29129 25.0203 5.31179L25.0224 5.30864Z" fill="white"/>
</g>
<defs>
<clipPath id="clip0_2_13522">
<rect width="25.3824" height="25.1452" fill="white" transform="translate(0.017334 0.135254)"/>
</clipPath>
</defs>
</svg>
